<svg xmlns="http://www.w3.org/2000/svg" xmlns:svg="http://www.w3.org/2000/svg" id="svg3523" width="30" height="30" version="1.1"><metadata id="metadata3528"/><g id="layer1" transform="translate(0,-1022.3622)"><g id="g4161" transform="matrix(0.15731506,0,0,0.15731506,-6.283685,917.39466)"><g style="fill:#7d8768;fill-opacity:1" id="g4081" transform="matrix(1.496063,0,0,1.496063,-1830.9637,-454.64492)"><path style="fill:#7d8768;fill-opacity:1;stroke:none" id="path3126-3" d="m 1355,877.36218 5,-5 -15,-15 10,-10 -25,0 0,25 10,-10 z"/><path style="fill:#7d8768;fill-opacity:1;stroke:none" id="path3126-7-5" d="m 1355,757.36218 5,5 -15,15 10,10 -25,0 0,-25 10,10 z"/><path style="fill:#7d8768;fill-opacity:1;stroke:none" id="path4011-5" d="m 1315,767.36218 10,0 0,20 c 0,4 1,5 5,5 l 20,0 0,20 -35,0 z"/><path style="fill:#7d8768;fill-opacity:1;stroke:none" id="path4013-2" d="m 1315,817.36218 35,0 0,25 -20,0 c -4,0 -5,1 -5,5 l 0,20 -10,0 z"/><path style="fill:#7d8768;fill-opacity:1;stroke:none" id="path3126-1-1" d="m 1270,752.36218 -5,5 15,15 -10,10 25,0 0,-25 -10,10 z"/><path style="fill:#7d8768;fill-opacity:1;stroke:none" id="path3126-7-0-5" d="m 1270,872.36218 -5,-5 15,-15 -10,-10 25,0 0,25 -10,-10 z"/><path style="fill:#7d8768;fill-opacity:1;stroke:none" id="path4011-0-8" d="m 1310,862.36218 -10,0 0,-20 c 0,-4 -1,-5 -5,-5 l -20,0 0,-20 35,0 z"/><path style="fill:#7d8768;fill-opacity:1;stroke:none" id="path4013-7-1" d="m 1310,812.36218 -35,0 0,-25 20,0 c 4,0 5,-1 5,-5 l 0,-20 10,0 z"/></g><path id="path3126" d="m 200.3937,854.25193 7.4803,-7.48031 -22.4409,-22.44095 14.9606,-14.96063 -37.4016,0 0,37.40158 14.9607,-14.96063 z" style="fill:#7ac72a;fill-opacity:1;stroke:none"/><path id="path3126-7" d="m 200.3937,674.72437 7.4803,7.48033 -22.4409,22.44093 14.9606,14.96063 -37.4016,0 0,-37.40156 14.9607,14.96063 z" style="fill:#7f46a5;fill-opacity:1;stroke:none"/><path id="path4011" d="m 140.5512,689.68501 14.9606,0 0,29.92125 c 0,5.98426 1.4961,7.48033 7.4803,7.48033 l 29.9213,0 0,29.92125 -52.3622,0 z" style="fill:#7f46a5;fill-opacity:1;stroke:none"/><path id="path4013" d="m 140.5512,764.48815 52.3622,0 0,37.40158 -29.9213,0 c -5.9842,0 -7.4803,1.49606 -7.4803,7.48031 l 0,29.92126 -14.9606,0 z" style="fill:#7ac72a;fill-opacity:1;stroke:none"/><path id="path3126-1" d="m 73.2283,667.24406 -7.4803,7.48031 22.441,22.44096 -14.9607,14.96063 37.4016,0 0,-37.40158 -14.9606,14.96063 z" style="fill:#7ac72a;fill-opacity:1;stroke:none"/><path id="path3126-7-0" d="m 73.2283,846.77162 -7.4803,-7.48032 22.441,-22.44094 -14.9607,-14.96063 37.4016,0 0,37.40157 -14.9606,-14.96063 z" style="fill:#7f46a5;fill-opacity:1;stroke:none"/><path id="path4011-0" d="m 133.0709,831.811 -14.9607,0 0,-29.92126 c 0,-5.98425 -1.496,-7.48032 -7.4803,-7.48032 l -29.9212,0 0,-29.92126 52.3622,0 z" style="fill:#7f46a5;fill-opacity:1;stroke:none"/><path id="path4013-7" d="m 133.0709,757.00784 -52.3622,0 0,-37.40158 29.9212,0 c 5.9843,0 7.4803,-1.49606 7.4803,-7.48031 l 0,-29.92125 14.9607,0 z" style="fill:#7ac72a;fill-opacity:1;stroke:none"/></g></g></svg>