<svg xmlns="http://www.w3.org/2000/svg" xmlns:svg="http://www.w3.org/2000/svg" id="svg3607" width="30" height="30" version="1.1"><metadata id="metadata3612"/><g id="layer1" transform="translate(0,-1022.3622)"><g id="g4180" transform="matrix(0.15873016,0,0,0.15873016,-45.555556,918.84439)"><g id="g4157" transform="translate(1,-1.4)"><path style="fill:#878f8e;fill-opacity:1;stroke:none" id="path4055-8-3" d="m 446.25656,817.36218 -118.94463,0 0,-51.29376 -41.31193,0 51.63992,-30.98394 51.63992,30.98394 -41.31193,0 0,30.63778 77.63267,0 0,-20.65595 20.65598,0 z"/><path style="fill:#878f8e;fill-opacity:1;stroke:none" id="path4055-8-5-7" d="m 310.57946,683.79074 118.94461,0 0,51.29374 41.31193,0 -51.63992,30.98394 -51.6399,-30.98394 41.31193,0 0,-30.63777 -77.63269,0 0,20.65596 -20.65596,0 z"/></g><path id="path4055-8" d="m 451.42054,812.19818 -118.94461,0 0,-51.29373 -41.31193,0 51.63992,-30.98396 51.6399,30.98396 -41.31193,0 0,30.63778 77.63269,0 0,-20.65598 20.65596,0 z" style="fill:#ab6668;fill-opacity:1;stroke:none"/><path id="path4055-8-5" d="m 315.74344,678.62674 118.94463,0 0,51.29375 41.31193,0 -51.63992,30.98396 -51.63992,-30.98396 41.31193,0 0,-30.63778 -77.63267,0 0,20.65597 -20.65598,0 z" style="fill:#64b9b5;fill-opacity:1;stroke:none"/></g></g></svg>