<svg xmlns="http://www.w3.org/2000/svg" xmlns:svg="http://www.w3.org/2000/svg" id="svg3340" width="30" height="30" version="1.1"><metadata id="metadata3345"/><g id="layer1" transform="translate(0,-1022.3622)"><path style="fill:#7a8962;fill-opacity:1;stroke:none" id="path3777" d="m 0.96354687,1029.0478 10.83701413,0 0,13.7372 -10.83701413,0 z"/><path style="fill:#d1ac73;fill-opacity:1;stroke:none" id="path3777-3" d="m 2.0384476,1030.0938 10.8370144,0 0,13.7372 -10.8370144,0 z"/><path style="fill:#9b8962;fill-opacity:1;stroke:none" id="path3777-6" d="m 16.681194,1022.6503 9.533759,5.0242 -6.698259,12.0851 -9.53376,-5.0241 z"/><path style="fill:#dec48e;fill-opacity:1;stroke:none" id="path3777-7" d="m 17.149113,1024.098 9.533758,5.0242 -6.69826,12.0852 -9.533759,-5.0242 z"/><path style="fill:#7a8962;fill-opacity:1;stroke:none" id="path3777-35" d="m 5.3096318,1033.3085 10.8370142,0 0,13.7372 -10.8370142,0 z"/><path style="fill:#d1ac73;fill-opacity:1;stroke:none" id="path3777-3-6" d="m 6.3845326,1034.3545 10.8370144,0 0,13.7372 -10.8370144,0 z"/><path style="fill:#9b8962;fill-opacity:1;stroke:none" id="path3777-6-2" d="m 18.427078,1028.4135 9.533758,5.0242 -6.698259,12.0852 -9.533759,-5.0243 z"/><path style="fill:#dec48e;fill-opacity:1;stroke:none" id="path3777-7-9" d="m 18.894996,1029.8613 9.533758,5.0242 -6.69826,12.0851 -9.533757,-5.0241 z"/><path style="fill:#7a8962;fill-opacity:1;stroke:none" id="path3777-6-2-3" d="m 9.6444377,1037.5023 10.8370143,0 0,13.7372 -10.8370143,0 z"/><path style="fill:#d1ac73;fill-opacity:1;stroke:none" id="path3777-7-9-6" d="m 10.762005,1038.559 10.837014,0 0,13.7372 -10.837014,0 z"/></g></svg>